<svg width="818" height="517" viewBox="0 0 818 517" fill="none" xmlns="http://www.w3.org/2000/svg">
<rect x="0.873413" y="509.589" width="878.747" height="191.808" transform="rotate(-33.4394 0.873413 509.589)" fill="#F5E3D6"/>
<circle cx="750.768" cy="128.11" r="4.5" transform="rotate(10.4507 750.768 128.11)" fill="white"/>
<circle cx="743.913" cy="115.66" r="4.5" transform="rotate(10.4507 743.913 115.66)" fill="white"/>
<circle cx="757.986" cy="138.593" r="4.5" transform="rotate(10.4507 757.986 138.593)" fill="white"/>
<line x1="610.676" y1="92.9081" x2="731.387" y2="278.159" stroke="white" stroke-width="4"/>
<path d="M630.913 123.239C629.986 123.84 629.721 125.078 630.321 126.005C630.922 126.932 632.16 127.197 633.087 126.597L630.913 123.239ZM633.087 126.597L822.859 3.67866L820.684 0.32139L630.913 123.239L633.087 126.597Z" fill="white"/>
<path d="M702.898 232.863C701.977 233.472 701.722 234.712 702.331 235.634C702.939 236.556 704.18 236.81 705.102 236.202L702.898 232.863ZM705.102 236.202L893.817 111.669L891.614 108.331L702.898 232.863L705.102 236.202Z" fill="white"/>
</svg>
