<svg width="815" height="665" viewBox="0 0 815 665" fill="none" xmlns="http://www.w3.org/2000/svg">
<rect x="659.752" y="903.021" width="878.747" height="191.808" transform="rotate(-138.332 659.752 903.021)" fill="#F5E3D6"/>
<circle cx="98.3557" cy="276.361" r="4.5" transform="rotate(-94.4421 98.3557 276.361)" fill="white"/>
<circle cx="88.0858" cy="286.185" r="4.5" transform="rotate(-94.4421 88.0858 286.185)" fill="white"/>
<circle cx="106.632" cy="266.69" r="4.5" transform="rotate(-94.4421 106.632 266.69)" fill="white"/>
<line x1="109.613" y1="413.903" x2="248.331" y2="256.543" stroke="white" stroke-width="4"/>
<path d="M124.453 393.441C125.272 394.183 126.537 394.121 127.278 393.302C128.02 392.483 127.957 391.219 127.139 390.477L124.453 393.441ZM127.139 390.477L-40.4236 238.672L-43.1093 241.636L124.453 393.441L127.139 390.477Z" fill="white"/>
<path d="M211.894 295.699C212.718 296.434 213.983 296.361 214.717 295.536C215.452 294.711 215.379 293.447 214.554 292.712L211.894 295.699ZM214.554 292.712L45.7022 142.342L43.042 145.329L211.894 295.699L214.554 292.712Z" fill="white"/>
</svg>
